<svg width="36" height="36" viewBox="0 0 36 36" fill="none" xmlns="http://www.w3.org/2000/svg">
<path d="M23.0006 5.625H12.9983C11.0432 5.62649 9.16865 6.40379 7.78622 7.78622C6.40379 9.16865 5.62649 11.0432 5.625 12.9983V23.0006C5.62619 24.9559 6.40336 26.8307 7.78582 28.2134C9.16829 29.5961 11.043 30.3735 12.9983 30.375H23.0006C24.9558 30.3732 26.8303 29.5957 28.2127 28.2131C29.5951 26.8304 30.3724 24.9558 30.3739 23.0006V12.9983C30.373 11.043 29.5959 9.16812 28.2133 7.78556C26.8308 6.403 24.9559 5.62589 23.0006 5.625ZM27.8854 23.0006C27.8851 24.296 27.3703 25.5383 26.4543 26.4543C25.5383 27.3703 24.2961 27.8851 23.0006 27.8854H12.9983C12.3568 27.8854 11.7217 27.759 11.1291 27.5135C10.5365 27.268 9.99811 26.9082 9.54461 26.4546C9.09111 26.001 8.73141 25.4625 8.48605 24.8699C8.24069 24.2772 8.11448 23.642 8.11463 23.0006V12.9983C8.11448 12.3569 8.2407 11.7218 8.48607 11.1292C8.73144 10.5366 9.09116 9.99819 9.54468 9.54468C9.99819 9.09116 10.5366 8.73144 11.1292 8.48607C11.7218 8.24069 12.3569 8.11448 12.9983 8.11462H23.0006C24.2958 8.11492 25.5378 8.62954 26.4535 9.54533C27.3693 10.4611 27.884 11.7031 27.8843 12.9983L27.8854 23.0006Z" fill="#333333"/>
<path d="M18.0001 11.601C14.4698 11.601 11.6011 14.4709 11.6011 18C11.6011 21.5291 14.4709 24.399 18.0001 24.399C21.5292 24.399 24.3991 21.5291 24.3991 18C24.3991 14.4709 21.5303 11.601 18.0001 11.601ZM18.0001 21.9094C16.9632 21.9095 15.9688 21.4978 15.2356 20.7647C14.5023 20.0317 14.0903 19.0374 14.0901 18.0006C14.09 16.9637 14.5017 15.9693 15.2348 15.236C15.9678 14.5028 16.9621 14.0908 17.9989 14.0906C19.0358 14.0905 20.0302 14.5022 20.7635 15.2352C21.4967 15.9683 21.9087 16.9626 21.9089 17.9994C21.909 19.0363 21.4973 20.0307 20.7643 20.7639C20.0312 21.4972 19.0369 21.9092 18.0001 21.9094ZM24.4126 10.1149C24.7158 10.1151 25.0121 10.2052 25.264 10.3738C25.516 10.5423 25.7124 10.7818 25.8283 11.062C25.9442 11.3421 25.9745 11.6503 25.9153 11.9477C25.8561 12.245 25.7101 12.5181 25.4957 12.7325C25.2813 12.9469 25.0082 13.0929 24.7109 13.1521C24.4135 13.2113 24.1053 13.181 23.8252 13.0651C23.545 12.9492 23.3055 12.7528 23.137 12.5008C22.9684 12.2489 22.8783 11.9525 22.8781 11.6494C22.8781 10.8034 23.4518 10.1149 24.4126 10.1149Z" fill="#333333"/>
</svg>
