<svg width="36" height="36" viewBox="0 0 36 36" fill="none" xmlns="http://www.w3.org/2000/svg">
<path fill-rule="evenodd" clip-rule="evenodd" d="M11.415 28.8V13.4161H6.30225V28.7999L11.415 28.8ZM8.85915 11.3165C10.6415 11.3165 11.7518 10.1342 11.7518 8.65796C11.7181 7.14892 10.6415 6 8.89257 6C7.14336 6.00005 6 7.14896 6 8.65801C6 10.1342 7.10966 11.3165 8.82549 11.3165L8.85915 11.3165ZM14.2447 28.8C14.2447 28.8 14.3117 14.8595 14.2447 13.4162H19.3582V15.6471H19.3243C19.9966 14.5973 21.208 13.0549 23.966 13.0549C27.3309 13.0549 29.853 15.2536 29.853 19.979V28.8H24.7404V20.5701C24.7404 18.5021 24.0006 17.091 22.1498 17.091C20.7376 17.091 19.8959 18.0424 19.5263 18.9619C19.3911 19.2892 19.3582 19.749 19.3582 20.2088V28.8H14.2447Z" fill="#333333"/>
</svg>
