<svg width="36" height="36" viewBox="0 0 36 36" fill="none" xmlns="http://www.w3.org/2000/svg">
<path d="M8.1637 23.1729C10.0224 25.0343 12.4977 26.1517 15.1232 26.3147C17.7487 26.4776 20.3431 25.6748 22.4177 24.0575L29.5562 31.196C29.8093 31.4405 30.1484 31.5758 30.5004 31.5727C30.8523 31.5696 31.189 31.4285 31.4379 31.1796C31.6867 30.9307 31.8279 30.5941 31.831 30.2421C31.834 29.8902 31.6987 29.5511 31.4542 29.2979L24.3158 22.1595C26.0048 19.9919 26.8034 17.2616 26.5486 14.5254C26.2938 11.7893 25.0048 9.25339 22.9446 7.43491C20.8843 5.61644 18.208 4.65236 15.4614 4.73929C12.7148 4.82623 10.1048 5.95763 8.1637 7.90276C7.16071 8.90523 6.36508 10.0955 5.82224 11.4055C5.2794 12.7156 5 14.1198 5 15.5378C5 16.9559 5.2794 18.3601 5.82224 19.6701C6.36508 20.9802 7.16071 22.1705 8.1637 23.1729ZM10.0617 9.80348C11.3887 8.47653 13.1347 7.65073 15.0023 7.46677C16.8699 7.28281 18.7434 7.75208 20.3038 8.79462C21.8642 9.83716 23.0148 11.3885 23.5597 13.1843C24.1045 14.98 24.0098 16.9092 23.2918 18.643C22.5738 20.3768 21.2768 21.808 19.6219 22.6928C17.9669 23.5775 16.0564 23.8611 14.2158 23.4952C12.3752 23.1293 10.7184 22.1366 9.52775 20.6861C8.33706 19.2356 7.68611 17.4171 7.68583 15.5405C7.68215 14.4742 7.89027 13.4177 8.29813 12.4324C8.70598 11.4471 9.30544 10.5526 10.0617 9.80079V9.80348Z" fill="#333333"/>
</svg>
